<?xml version="1.0" standalone="no"?><!DOCTYPE svg PUBLIC "-//W3C//DTD SVG 1.1//EN" "http://www.w3.org/Graphics/SVG/1.1/DTD/svg11.dtd"><svg t="1638956016847" class="icon" viewBox="0 0 1024 1024" version="1.1" xmlns="http://www.w3.org/2000/svg" p-id="2312" xmlns:xlink="http://www.w3.org/1999/xlink" width="200" height="200"><defs><style type="text/css"></style></defs><path d="M512 512m-512 0a512 512 0 1 0 1024 0 512 512 0 1 0-1024 0Z" fill="#ACB8D6" p-id="2313"></path><path d="M511.616 164.46464c109.5168 0 198.2976 100.15744 198.2976 223.70304s-88.7808 223.70304-198.2976 223.70304-198.2976-100.15744-198.2976-223.70304 88.7808-223.70304 198.2976-223.70304z" fill="#DDE5F9" p-id="2314"></path><path d="M359.65952 597.53984s-167.69536 29.34272-214.4 178.6624c19.456 175.39072 520.56064 339.07712 756.34688 29.77792-9.9328-153.87648-208.44032-212.72576-208.44032-212.72576s-186.79808 140.73856-333.50656 4.28544z" fill="#DDE5F9" p-id="2315"></path></svg>